<?xml version="1.0" encoding="UTF-8"?>
<svg version="1.1" viewBox="0 0 1896 1064" width="1280" height="1280" xmlns="http://www.w3.org/2000/svg">
<path transform="translate(0)" d="m0 0h1896v1064h-1896z" fill="#F9F8F8"/>
<path transform="translate(1245,548)" d="m0 0h89l19 3 20 7 17 9 14 10 10 9 10 13 8 14 8 17 4 18 1 17-1 15-6 23-7 17-10 15-9 10-7 7-13 10-15 8-19 7-14 3-17 1h-82l-1-161v-71z" fill="#C69A44"/>
<path transform="translate(1029,548)" d="m0 0h37l12 19 13 18 11 16 12 17 11 16 15 22 26 36 5 8v2h2v-153l11-1h38l1 1v232h-51l-5-5-14-20-13-18-8-11-11-15-12-17-14-20-14-19-10-14-7-10-1 8-1 141-43 1-6-1-1-206-3-12-5-10v-4z" fill="#C69A44"/>
<path transform="translate(923,273)" d="m0 0h33l18 4 15 5 19 10 10 8 10 9 10 12 7 12v2l-7 2-16 8-21 10-6-5-6-9-10-8-8-5-13-5-5-1h-26l-15 4-15 8-9 8-9 13-7 15-3 11-1 7v11l3 16 7 16 6 9 6 7 14 10 13 6 12 3h18l18-4 14-7 7-6 7-10 8-16h-82l1-5 9-20 7-14 3-4h115l1 1-1 36-4 18-5 13-7 14-11 14-11 11-16 11-14 7-15 5-13 3-6 1h-25l-19-3-19-7-16-8-13-10-12-11-9-11-10-17-7-17-4-13-3-19v-12l3-18 6-18 8-16 7-12 12-14 14-12 14-9 18-8 15-4z" fill="#C69A44"/>
<path transform="translate(702,547)" d="m0 0h30l21 4 15 6 16 8 13 9 11 11 13 17 2 3v3l-22 11-22 10h-3l-6-10-6-7-14-10-13-5-11-2h-15l-17 3-16 7-10 8-8 10-8 14-4 12-2 16 1 15 4 15 7 14 7 9 8 8 12 7 15 5 13 2h14l12-3 16-8 10-9 7-10 6-14-20 1h-62l3-9 11-22 5-11 2-1h115l1 1v15l-2 22-5 21-7 16-9 14-9 10-8 8-13 9-17 9-19 6-18 3h-21l-17-3-16-4-16-8-15-9-17-16-12-17-8-15-7-21-3-17v-23l4-20 5-15 8-15 8-11 9-10 9-9 14-10 17-9 14-5 13-3z" fill="#C69A44"/>
<path transform="translate(670,273)" d="m0 0h70l5 10 8 21 18 44 12 30 14 36 12 29 13 33 10 26 1 5-15 1h-34l-4-4-7-17-7-19-1-4-42-1h-51l-4 6-12 32-3 6-12 1-39-1 1-7 8-20 16-38 17-42 17-41 16-41 5-11-2-9-8-18-2-3z" fill="#C69A44"/>
<path transform="translate(1072,273)" d="m0 0h50l1 1 1 151 3 14 6 12 8 7 10 5 10 2h12l13-4 9-7 7-9 4-10 1-6 1-16 1-140h52v32l-1 91-1 43-4 16-5 12-7 12-9 11-8 7-14 8-16 6-13 3-7 1h-21l-21-4-13-5-11-6-10-9-8-8-7-10-6-12-5-18-2-16z" fill="#C69A44"/>
<path transform="translate(1522,547)" d="m0 0h26l18 4 12 5 11 6 10 9 7 8 6 11 1 5-16 8-21 11-7 2-7-14-7-6-7-4-7-2h-15l-12 5-5 6-4 9v8l4 8 5 4 12 6 52 16 17 9 10 9 8 13 4 12 2 15-1 17-3 12-7 14-7 9-8 8-14 9-16 6-18 3h-27l-20-4-12-5-11-6-13-11-10-12-5-7 1-3 33-16 7-4 5 1 8 11 9 7 11 5 5 1h13l12-3 6-4 5-5 4-9v-9l-4-8-8-7-12-5-25-7-20-6-16-8-8-6-5-4-10-16-4-13-1-5v-22l4-15 8-15 9-10 10-8 14-7 17-5z" fill="#C69A44"/>
<path transform="translate(1284,274)" d="m0 0h35l103 1v44l-1 1h-87l1 46 79 1-1 8-10 35-11 1h-58l1 50h52l30 1 5 1v43l-1 2h-126l-11-1-1-2v-230z" fill="#C69A44"/>
<path transform="translate(447,548)" d="m0 0h138v45l-9 1h-79l1 46h78v8l-9 30-3 7h-67v50l88 1v46h-61l-78-1v-232z" fill="#C69A44"/>
<path transform="translate(540,274)" d="m0 0h45v46h-88v47h79l-1 10-7 27-2 6-11 1-58 1v49l88 1 1 1v20l-1 24-3 1h-124l-11-1-1-1v-231z" fill="#C69A44"/>
<path transform="translate(882,548)" d="m0 0h108v46l-87 1v45l79 1-1 7-8 30-1 6-7 1h-63l1 50 87 1v45h-138l-1-138v-94z" fill="#C69A44"/>
<path transform="translate(274,273)" d="m0 0h60l2 1v187h86l7 1-4 16-9 29-1 1h-139l-1-5 5-10 2-6 2-2v-188l-4-10-6-12z" fill="#C69A44"/>
<path transform="translate(276,547)" d="m0 0h59l1 1v187h91l1 3-8 31-4 12-5 1h-34l-104-1 2-5 8-13 1-3v-186l-2-9-5-11z" fill="#C69A44"/>
<path transform="translate(1296,595)" d="m0 0h25l18 2 16 5 11 7 11 11 8 13 4 8 3 14 1 13-3 15-6 16-6 10-10 10-15 10-17 5-28 1-12-1-1-1v-137z" fill="#F9F8F8"/>
<path transform="translate(1480,337)" d="m0 0h19l13 4 12 6 11 10 6 9 5 14 1 7v13l-4 13-6 10-9 10-14 9-14 4h-17l-14-4-11-7-9-9-8-14-4-12v-17l4-13 6-11 7-8 13-9z" fill="#C69A44"/>
<path transform="translate(1558,337)" d="m0 0 64 1v15l-1 9-37 1-1 21h33l1 2-3 12-3 9-27 1v34h-27v-54z" fill="#C69A44"/>
<path transform="translate(1489,362)" d="m0 0 11 1 8 4 9 9 4 9v13l-6 12-4 5-9 5-4 1h-11l-11-4-8-8-4-8-1-3v-13l6-12 8-7 7-3z" fill="#F9F8F8"/>
<path transform="translate(717,341)" d="m0 0h2l13 36 10 26 5 14-13 1-46-1 3-10 25-65z" fill="#F9F8F8"/>
</svg>
